<?xml version="1.0" encoding="utf-8"?>
<!-- Generator: Adobe Illustrator 20.1.0, SVG Export Plug-In . SVG Version: 6.00 Build 0)  -->
<svg version="1.1" id="Layer_1" xmlns="http://www.w3.org/2000/svg" xmlns:xlink="http://www.w3.org/1999/xlink" x="0px" y="0px"
	 viewBox="0 0 26 25" style="enable-background:new 0 0 26 25;" xml:space="preserve">
<style type="text/css">
	.st0{fill:#FFFFFF;}
</style>
<g>
	<g>
		<g>
			<g>
				<defs>
					<rect id="SVGID_1_" x="-690" y="-283.1" width="1440" height="600"/>
				</defs>
				<clipPath id="SVGID_2_">
					<use xlink:href="#SVGID_1_"  style="overflow:visible;"/>
				</clipPath>
			</g>
		</g>
		<g>
			<g>
				<g>
					<g>
						<defs>
							<rect id="SVGID_3_" x="-690" y="-283.1" width="1440" height="600"/>
						</defs>
						<clipPath id="SVGID_4_">
							<use xlink:href="#SVGID_3_"  style="overflow:visible;"/>
						</clipPath>
					</g>
				</g>
				<g>
					<path class="st0" d="M3.2,6L3.2,6c-1.9,0-3-1.3-3-2.9s1.2-2.9,3.1-2.9s3.1,1.2,3.1,2.9C6.4,4.7,5.2,6,3.2,6z M6,24.8H0.5V8.2H6
						V24.8z M25.9,24.8h-5.5v-8.9c0-2.2-0.8-3.7-2.8-3.7c-1.5,0-2.4,1-2.8,2c-0.1,0.4-0.2,0.9-0.2,1.4v9.3H9C9.1,9.8,9,8.2,9,8.2
						h5.5v2.4l0,0c0.7-1.1,2-2.8,5-2.8c3.6,0,6.3,2.4,6.3,7.5v9.5H25.9z"/>
				</g>
			</g>
		</g>
	</g>
</g>
</svg>
