<?xml version="1.0" encoding="utf-8"?>
<!-- Generator: Adobe Illustrator 15.0.0, SVG Export Plug-In . SVG Version: 6.00 Build 0)  -->
<!DOCTYPE svg PUBLIC "-//W3C//DTD SVG 1.0//EN" "http://www.w3.org/TR/2001/REC-SVG-20010904/DTD/svg10.dtd">
<svg version="1.0" id="Ebene_1" xmlns="http://www.w3.org/2000/svg" xmlns:xlink="http://www.w3.org/1999/xlink" x="0px" y="0px"
	 width="32px" height="32px" viewBox="0 0 32 32" enable-background="new 0 0 32 32" xml:space="preserve">
<path fill="#FFFFFF" d="M30.101,6.9c-1,0.4-2.2,0.8-3.301,0.9C28,7.1,28.9,6,29.3,4.6C28.2,5.2,27,5.7,25.7,6
	c-1.1-1.1-2.6-1.8-4.2-1.8c-3.2,0-5.8,2.6-5.8,5.8c0,0.4,0.1,0.9,0.1,1.3C11.1,11,6.8,8.7,4,5.2C3.5,6.1,3.2,7,3.2,8.1
	c0,2,1,3.8,2.6,4.8c-0.9,0-1.8-0.301-2.6-0.7v0.1c0,2.8,2,5.101,4.6,5.7c-0.5,0.1-1,0.2-1.5,0.2c-0.4,0-0.7,0-1.1-0.101
	c0.7,2.301,2.9,3.9,5.4,4c-2,1.601-4.5,2.5-7.2,2.5c-0.5,0-0.9,0-1.4-0.1c2.5,1.6,5.6,2.5,8.8,2.5c10.6,0,16.4-8.8,16.4-16.4
	c0-0.2,0-0.5,0-0.8C28.4,9,29.3,8,30.101,6.9z"/>
</svg>
