<?xml version="1.0" encoding="utf-8"?>
<!-- Generator: Adobe Illustrator 15.0.0, SVG Export Plug-In . SVG Version: 6.00 Build 0)  -->
<!DOCTYPE svg PUBLIC "-//W3C//DTD SVG 1.0//EN" "http://www.w3.org/TR/2001/REC-SVG-20010904/DTD/svg10.dtd">
<svg version="1.0" id="Ebene_1" xmlns="http://www.w3.org/2000/svg" xmlns:xlink="http://www.w3.org/1999/xlink" x="0px" y="0px"
	 width="32px" height="32px" viewBox="0 0 32 32" enable-background="new 0 0 32 32" xml:space="preserve">
<path fill="#FFFFFF" d="M13.1,20.1l7.6-3.899l-7.6-4V20.1z M16,6.7c5.9,0,9.8,0.3,9.8,0.3c0.5,0.1,1.8,0.1,2.8,1.2
	c0,0,0.9,0.8,1.101,2.8c0.3,2.2,0.3,4.4,0.3,4.4v2.1c0,0,0,2.3-0.3,4.5c-0.2,1.9-1.101,2.8-1.101,2.8C27.5,25.9,26.3,25.9,25.8,26
	c0,0-3.899,0.3-9.8,0.3C8.7,26.2,6.5,26,6.5,26c-0.6-0.1-2-0.1-3.1-1.2c0,0-0.9-0.899-1.1-2.8C2,19.8,2,17.6,2,17.6v-2.2
	c0,0,0-2.3,0.3-4.5C2.5,9,3.4,8.1,3.4,8.1C4.5,7,5.7,7,6.2,6.9C6.2,6.9,10.1,6.7,16,6.7z"/>
</svg>
